<svg preserveAspectRatio="none" width="100%" height="100%" overflow="visible" style="display: block;" viewBox="0 0 347.866 204.263" fill="none" xmlns="http://www.w3.org/2000/svg">
<g id="500" filter="url(#filter0_d_0_8)">
<path d="M40 125.894L63.2422 123.486C63.9062 128.743 65.8708 132.922 69.1357 136.021C72.4007 139.064 76.1637 140.586 80.4248 140.586C85.2946 140.586 89.4173 138.621 92.793 134.692C96.1686 130.708 97.8564 124.731 97.8564 116.763C97.8564 109.292 96.1686 103.703 92.793 99.9951C89.4727 96.2321 85.1286 94.3506 79.7607 94.3506C73.0648 94.3506 67.0605 97.3112 61.748 103.232L42.8223 100.493L47.7754 37.1582H116.45V58.9893H70.4561L68.8037 79.6582C74.0055 77.0573 79.318 75.7568 84.7412 75.7568C95.0895 75.7568 103.861 79.5199 111.055 87.0459C118.249 94.5719 121.846 104.339 121.846 116.348C121.846 126.364 118.94 135.301 113.13 143.159C105.216 153.895 94.2318 159.263 80.1758 159.263C68.9421 159.263 59.7835 156.247 52.7002 150.215C45.6169 144.183 41.3835 136.076 40 125.894Z" fill="var(--fill-0, #15F0C7)"/>
<path d="M173.726 35C185.513 35 194.727 39.2057 201.367 47.6172C209.281 57.5781 213.237 74.0967 213.237 97.1729C213.237 120.194 209.253 136.74 201.284 146.812C194.699 155.112 185.513 159.263 173.726 159.263C161.883 159.263 152.337 154.725 145.088 145.649C137.839 136.519 134.214 120.277 134.214 96.9238C134.214 74.0137 138.198 57.5228 146.167 47.4512C152.752 39.1504 161.938 35 173.726 35ZM173.726 54.3408C170.903 54.3408 168.385 55.2539 166.172 57.0801C163.958 58.8509 162.243 62.0605 161.025 66.709C159.421 72.7409 158.618 82.8955 158.618 97.1729C158.618 111.45 159.338 121.273 160.776 126.641C162.215 131.953 164.014 135.495 166.172 137.266C168.385 139.036 170.903 139.922 173.726 139.922C176.548 139.922 179.066 139.036 181.279 137.266C183.493 135.439 185.208 132.202 186.426 127.554C188.031 121.577 188.833 111.45 188.833 97.1729C188.833 82.8955 188.114 73.1006 186.675 67.7881C185.236 62.4202 183.41 58.8509 181.196 57.0801C179.038 55.2539 176.548 54.3408 173.726 54.3408Z" fill="var(--fill-0, #15F0C7)"/>
<path d="M268.354 35C280.142 35 289.355 39.2057 295.996 47.6172C303.91 57.5781 307.866 74.0967 307.866 97.1729C307.866 120.194 303.882 136.74 295.913 146.812C289.328 155.112 280.142 159.263 268.354 159.263C256.512 159.263 246.966 154.725 239.717 145.649C232.467 136.519 228.843 120.277 228.843 96.9238C228.843 74.0137 232.827 57.5228 240.796 47.4512C247.381 39.1504 256.567 35 268.354 35ZM268.354 54.3408C265.532 54.3408 263.014 55.2539 260.801 57.0801C258.587 58.8509 256.872 62.0605 255.654 66.709C254.049 72.7409 253.247 82.8955 253.247 97.1729C253.247 111.45 253.966 121.273 255.405 126.641C256.844 131.953 258.643 135.495 260.801 137.266C263.014 139.036 265.532 139.922 268.354 139.922C271.177 139.922 273.695 139.036 275.908 137.266C278.122 135.439 279.837 132.202 281.055 127.554C282.66 121.577 283.462 111.45 283.462 97.1729C283.462 82.8955 282.743 73.1006 281.304 67.7881C279.865 62.4202 278.039 58.8509 275.825 57.0801C273.667 55.2539 271.177 54.3408 268.354 54.3408Z" fill="var(--fill-0, #15F0C7)"/>
</g>
<defs>
<filter id="filter0_d_0_8" x="0" y="0" width="347.866" height="204.263" filterUnits="userSpaceOnUse" color-interpolation-filters="sRGB">
<feFlood flood-opacity="0" result="BackgroundImageFix"/>
<feColorMatrix in="SourceAlpha" type="matrix" values="0 0 0 0 0 0 0 0 0 0 0 0 0 0 0 0 0 0 127 0" result="hardAlpha"/>
<feOffset dy="5"/>
<feGaussianBlur stdDeviation="20"/>
<feComposite in2="hardAlpha" operator="out"/>
<feColorMatrix type="matrix" values="0 0 0 0 0.0823529 0 0 0 0 0.941176 0 0 0 0 0.780392 0 0 0 0.4 0"/>
<feBlend mode="normal" in2="BackgroundImageFix" result="effect1_dropShadow_0_8"/>
<feBlend mode="normal" in="SourceGraphic" in2="effect1_dropShadow_0_8" result="shape"/>
</filter>
</defs>
</svg>
