<svg preserveAspectRatio="none" width="100%" height="100%" overflow="visible" style="display: block;" viewBox="0 0 236.356 111.035" fill="none" xmlns="http://www.w3.org/2000/svg">
<path id="Vector 4" d="M11.5473 34.3674C13.9673 32.3315 17.3529 29.8934 19.9768 28.1999C20.8029 27.6648 20.4163 27.9849 20.994 27.6178C22.1554 26.8833 23.1324 26.2351 24.2795 25.5602C24.6576 25.3387 24.2358 25.6949 24.6318 25.4612C26.7878 24.1918 28.8583 22.9817 31.0514 21.8146C42.048 15.9821 53.5056 11.4632 65.5639 7.97969C69.5828 6.81553 74.451 5.65448 78.6357 4.71302C79.1268 4.60201 78.8179 4.59388 78.9102 4.56758C80.3634 4.16014 79.908 4.41048 80.8567 4.2327C84.6437 3.52639 88.8629 2.7931 92.5758 2.2233C94.125 1.98704 92.547 2.06444 94.1246 1.92485C94.2343 1.91524 93.8498 2.0476 94.2782 1.99662C95.2481 1.87931 97.1009 1.62753 97.866 1.54354C99.3451 1.37999 99.5709 1.35433 100.947 1.20764C102.816 1.01076 105.124 0.838363 107.125 0.669637C107.556 0.633124 106.979 0.59578 107.666 0.530992C108.353 0.464664 110.188 0.35068 110.812 0.335024C111.436 0.317769 111.174 0.396274 111.285 0.404343C112.21 0.471152 114.304 0.205437 114.577 0.19222C119.564 -0.0799416 123.835 -0.0123604 128.519 0.087505C132.056 0.163937 135.869 0.313153 139.235 0.555459C143.296 0.849561 146.632 1.21393 150.542 1.67035C150.949 1.71852 150.483 1.56738 150.98 1.62645C156.292 2.26108 161.552 3.09366 166.792 4.15368C167.313 4.25941 166.625 4.21252 167.144 4.32327C170.328 4.98788 175.375 6.26348 177.326 6.36351C179.475 6.881 182.125 7.56092 183.99 8.1302C185.208 8.50182 183.99 8.26946 185.512 8.63845C185.856 8.72264 185.432 8.52587 185.946 8.65834C187.288 9.00458 188.705 9.40547 190.107 9.80675C191.007 10.0646 191.884 10.3197 192.717 10.5582C193.162 10.6856 193.062 10.581 193.191 10.6073C194.277 10.8315 195.922 11.5427 196.279 11.6754C198.984 12.6688 201.021 13.3553 203.679 14.3904C204.281 14.6271 203.605 14.2591 204.184 14.4841C207.13 15.6323 210.15 16.9657 212.98 18.4373C213.592 18.7575 212.989 18.5432 213.279 18.6999C214.545 19.3912 214.892 19.4036 216.043 20.0753C216.307 20.2299 216.124 20.2074 216.169 20.2413C216.898 20.7849 217.636 21.0244 217.832 21.1361C220.349 22.5919 221.405 23.4937 223.751 25.2231C224.012 25.4199 223.482 24.9002 224.211 25.4587C228.83 28.9874 233.37 34.0431 235.182 39.7515C235.457 40.6218 235.191 40.0229 235.202 40.0803C235.363 40.9907 235.67 41.5614 235.746 41.8562C236.34 44.1973 236.26 46.4101 236.356 48.0431C235.535 58.2973 228.651 66.8077 221.374 73.2363C221.28 73.3183 221.389 73.1065 221.203 73.2703C218.92 75.2343 219.427 74.9453 217.945 76.3775C217.59 76.7218 216.284 77.5055 216.166 77.5758C215.746 77.8346 216.073 77.425 215.936 77.5174C214.807 78.282 215.242 78.4781 213.728 79.5873C213.68 79.6214 213.835 79.4148 213.703 79.5014C213.293 79.7704 212.913 80.0795 212.502 80.338C211.595 80.9004 211.184 80.9477 209.886 81.9574C209.719 82.0847 210.124 82.1061 208.726 83.0044C208.171 83.3697 205.666 84.9385 204.981 85.3214C204.279 85.7234 204.717 85.3737 204.666 85.4006C202.736 86.4276 203.425 85.9692 202.399 86.3931C201.366 86.8137 201.804 86.9659 201.428 87.223C201.052 87.4816 199.573 88.2012 199.23 88.3512C198.874 88.5109 199.279 88.2383 198.966 88.3883C196.883 89.379 198.154 89.0176 197.505 89.4228C195.965 90.3754 194.574 90.7819 193.046 91.4952C192.643 91.6826 192.995 91.5782 192.643 91.7543C191.244 92.4482 190.354 92.7756 188.741 93.5865C188.478 93.7194 187.203 94.4588 186.279 94.7315C186.148 94.7699 186.476 94.5585 185.842 94.8156C184.913 95.1927 183.253 95.8705 182.255 96.2955C181.52 96.6091 182.41 96.3664 181.463 96.7104C181.041 96.8626 181.79 96.4974 180.999 96.7876C180.218 97.0762 178.189 97.8598 177.442 98.1379C176.689 98.4207 177.13 98.3428 177.071 98.3707C176.714 98.5383 175.27 99.1054 175.14 99.1506C168.565 101.516 162.412 103.228 155.875 104.929C155.36 105.062 155.725 105.059 155.646 105.08C153.886 105.554 155.226 104.989 153.972 105.218C154.193 105.342 153.448 105.494 152.214 105.801C151.618 105.949 151.959 105.939 151.906 105.958C151.04 106.263 150.39 106.273 150.224 106.282C149.613 106.317 148.994 106.571 148.577 106.593C148.16 106.615 149.067 106.322 147.867 106.578C147.543 106.71 148.469 106.681 147.561 106.898C144.126 107.746 137.652 108.738 134.842 109.104C132.048 109.488 131.144 109.603 129.509 109.776C126.554 110.068 127.65 110.065 125.818 110.306C123.979 110.536 124.849 110.155 124.578 110.117C124.313 110.077 124.035 110.167 123.709 110.16C123.384 110.153 124.077 110.051 123.319 110.102C122.56 110.156 120.497 110.421 120.232 110.503C119.673 110.68 120.618 110.772 118.606 110.842C118.49 110.846 118.86 110.747 118.418 110.764C114.887 110.908 111.239 111.006 107.717 110.939C107.232 110.93 107.666 110.845 107.384 110.839C104.449 110.754 105.497 110.908 103.886 111.035C104.252 110.826 103.366 110.684 101.154 110.589C99.8269 110.527 100.045 110.63 99.176 110.649C98.9144 110.655 97.9711 110.532 97.797 110.564C97.2225 110.669 98.1007 110.901 95.8133 110.664C95.7131 110.653 96.039 110.6 95.6925 110.567C93.7262 110.378 93.2725 110.447 91.5552 110.307C91.3276 110.288 91.0747 110.264 90.788 110.235C88.9037 110.044 85.5129 109.517 83.3953 109.191C83.4841 108.96 81.4313 108.715 80.576 108.748C79.2235 108.531 77.684 108.288 76.3499 108.034C75.8966 107.948 76.2073 107.93 76.1513 107.913C75.2919 107.643 74.6595 107.694 74.3584 107.646C71.0849 107.116 68.4845 106.472 65.3963 105.926C65.2859 105.906 65.0734 106.033 64.272 105.73C64.2205 105.709 65.2594 105.862 63.8044 105.532C62.3862 105.211 59.6567 104.476 57.6691 104.05C57.1842 103.947 55.9311 103.767 54.9785 103.402C54.8517 103.353 55.0069 103.344 54.8255 103.268C54.2437 103.023 53.87 103.099 53.1987 102.764C52.5292 102.428 51.0782 101.914 49.0714 101.417C49.0076 101.401 48.4997 101.39 47.8779 101.197C46.8852 100.89 45.4882 100.418 44.4563 100.079C43.9625 99.9166 44.2521 100.1 44.166 100.073C40.8382 99.014 38.521 98.1063 35.0526 96.685C34.411 96.4229 32.5708 95.7853 31.3738 95.1559C30.0829 94.4679 31.595 94.7235 28.5454 93.4099C27.3036 92.8609 25.5362 92.5839 23.5253 91.1825C19.3881 88.9911 15.7513 86.486 12.0969 83.5228C11.9319 83.3893 11.3287 83.0616 10.9626 82.7284C10.424 82.2388 10.1646 81.8999 9.78389 81.527C8.20471 79.9693 6.79748 78.4768 5.54081 76.7682C5.06697 76.1116 5.28145 76.2984 4.7375 75.4949C4.20443 74.6831 3.7842 74.2001 3.19143 73.0214C2.75057 72.1256 2.48896 71.1601 2.03327 69.9453C1.84725 69.9657 1.49016 69.1379 1.0028 67.6066C0.910783 67.3113 0.936737 67.6483 0.890041 67.5092C0.698343 66.9385 0.62557 66.3982 0.476849 65.8527C0.441035 65.72 0.377253 65.726 0.345169 65.6175C0.0565062 64.6967 0.0264333 63.0764 0.0411215 62.8236C0.0599252 61.7946 -0.0300305 61.3127 0.0107115 60.5078C0.0617131 59.7038 0.0848186 60.9074 0.128407 59.9684C0.213422 58.107 0.571436 55.6008 1.04857 53.7657C1.2418 53.011 1.02804 53.5045 1.0537 53.396C1.45368 51.7681 2.05443 50.3603 2.2242 49.4487C3.03828 48.5943 2.55643 48.4156 3.55911 46.4573C3.6425 46.2996 3.9233 46.1882 3.66334 46.8115C3.41587 47.4095 2.91413 48.3827 2.60569 49.3048C2.52471 49.526 2.26424 50.8019 2.22661 50.9652C1.8909 52.249 1.54512 52.3975 1.5056 52.4569C1.07521 53.2344 0.918274 54.8284 0.862562 55.2243C0.555554 57.0989 0.351843 58.7235 0.368884 60.3062C0.389692 61.3616 0.602355 61.4543 0.635725 62.2582C0.822273 64.9134 0.739672 65.9373 1.70091 68.3106C1.93035 68.8101 1.92176 68.2379 2.45937 70.112C2.48716 70.2287 2.91321 71.6244 3.40037 72.324C3.46016 72.4119 3.51591 72.3791 3.58527 72.4996C4.05642 73.3105 4.31463 73.8583 4.8812 74.6996C5.44983 75.5401 6.19253 76.5128 6.89441 77.4196C7.31655 77.9709 7.81921 78.7341 8.02649 79.0077C8.59044 79.7691 9.39485 80.3939 9.74485 80.8824C10.1021 81.3748 9.14252 80.6693 10.2389 81.8145C10.3971 81.7328 10.6135 81.6993 10.7974 81.6395C13.2541 83.9371 15.9636 86.0305 18.8298 87.8642C19.1887 88.0926 18.8705 87.7823 19.2573 88.0244C20.9158 89.0549 22.2929 89.932 24.085 90.875C25.4567 91.5941 26.9929 92.2671 28.4805 92.9508C29.2759 93.5499 31.4908 94.4935 33.0975 95.1879C33.6551 95.4304 33.5982 95.4617 33.9921 95.6439C35.4846 96.3253 34.8394 95.8745 35.2658 96.0195C37.1063 96.6306 37.1152 97.0502 39.2549 97.8358C39.3677 97.8788 40.8277 98.1887 41.0246 98.243C42.2709 98.5938 41.2029 98.3824 41.9597 98.663C43.3422 99.1708 44.3007 99.5446 45.9701 100.017C46.4565 100.155 47.6493 100.396 48.5587 100.775C48.6783 100.824 48.5905 100.869 48.6887 100.903C50.4697 101.507 50.5796 101.312 51.6323 101.54C52.6854 101.768 54.243 102.346 54.5573 102.474C55.3792 102.809 53.8933 102.344 53.8443 102.34C53.2703 102.315 54.4369 102.614 55.3324 102.862C55.409 103.099 56.6691 103.416 56.2608 103.117C56.2143 103.084 55.5105 102.919 55.3324 102.862C56.1738 102.874 57.5575 103.207 59.0284 103.768C59.7167 104.028 59.0188 103.972 61.2093 104.456C62.2016 104.672 61.8529 104.442 62.7307 104.605C64.7306 104.975 67.305 105.667 69.382 106.061C70.1388 106.205 69.4189 105.981 69.9359 106.076C71.3154 106.328 72.4528 106.605 73.8657 106.834C73.9914 106.854 73.7006 106.717 74.13 106.794C77.3487 107.367 80.138 107.88 83.5699 108.379C85.1878 108.616 88.0896 108.953 89.8607 109.165C90.4509 109.237 91.0546 109.312 91.6547 109.386C94.1571 109.697 96.8926 109.982 98.9308 110.076C100.591 110.15 100.232 110.045 100.94 110.023C102.302 109.981 104.713 110.24 105.04 110.273C105.05 110.275 103.627 110.261 104.385 110.321C104.825 110.42 105.024 110.273 105.04 110.273C105.253 110.303 108.103 110.351 108.672 110.328C108.98 110.318 108.807 110.241 108.968 110.237C112.754 110.153 116.58 109.992 120.421 109.764C120.488 109.761 120.392 109.856 120.552 109.847C122.782 109.729 124.2 109.497 126.028 109.254C127.855 109.01 129.305 108.863 130.406 108.88C131.783 108.695 133.768 108.494 134.91 108.367C136.051 108.241 136.185 108.046 136.284 108.028C139.383 107.44 141.193 107.227 144.398 106.629C145.932 106.344 148.947 105.689 150.578 105.296C151.871 104.988 152.645 104.847 153.84 104.531C154.001 104.489 153.82 104.455 153.869 104.44C155.179 104.026 154.583 104.362 154.866 104.327C155.891 104.195 156.524 104.104 158.201 103.603C158.589 103.487 159.652 102.925 160.352 102.713C161.265 102.438 160.937 102.63 161.901 102.332C161.983 102.307 161.95 102.256 162.548 102.086C165.332 101.293 168.284 100.408 171.129 99.4418C171.517 99.31 170.989 99.3899 171.549 99.1977C174.188 98.2895 176.952 97.2865 179.522 96.3324C180.147 96.1008 179.782 96.3134 179.923 96.2789C180.794 96.0657 181.891 95.4395 182.079 95.3587C186.543 93.4465 190.105 92.0248 194.563 89.723C194.811 89.5972 196.604 88.4791 197.494 88.1824C197.555 88.1623 198.444 87.8743 199.099 87.3927C199.14 87.3626 198.602 87.5616 199.476 87.095C200.384 86.6093 201.788 85.7586 203.025 85.139C203.417 84.9432 204.391 84.5573 205.42 83.7773C205.469 83.7406 207.067 82.4066 207.779 82.1793C207.894 82.1425 207.915 82.3893 209.16 81.4395C209.396 81.2575 208.921 81.5171 209.555 81.059C210.532 80.3516 211.817 79.5339 213.003 78.5554C213.206 78.3882 214.014 77.6188 214.773 77.1753C214.893 77.1058 214.729 77.3198 215.1 77.0456C216.83 75.7699 218.648 74.2166 220.327 72.7741C220.92 72.2623 220.701 72.6153 221.319 72.0885C221.911 71.5897 223.19 70.3958 223.752 69.7421C224.319 69.0843 223.537 69.6365 224.415 68.6967C228.21 64.5755 231.601 60.1626 233.604 54.9509C233.883 54.1936 233.6 54.8209 233.982 53.6762C235.693 49.4879 235.159 41.6719 233.389 38.2538C232.119 35.3693 233.948 38.8905 232.91 36.7245C232.419 35.739 231.563 34.8118 231.401 34.5874C229.729 32.2773 228.72 31.0368 226.838 29.2384C226.449 28.8779 226.769 29.2975 226.437 28.9908C225.407 28.0486 224.287 27.0582 223.137 26.1855C222.62 25.7958 222.676 25.9202 222.193 25.5572C220.983 24.661 220.149 24.0672 219.018 23.2723C218.916 23.2016 219.661 23.5775 218.796 23.0263C217.417 22.1472 215.447 20.9482 213.858 20.1893C213.356 19.9486 213.278 20.0703 212.236 19.4304C212.012 19.297 212.399 19.2804 211.026 18.7859C210.837 18.7148 208.357 17.7894 207.438 17.2532C207.181 17.1023 206.538 16.6658 205.908 16.4283C205.822 16.3966 206.129 16.611 205.611 16.4041C203.784 15.6745 201.784 14.8924 199.71 14.1751C199.202 14.0005 199.917 14.3437 199.178 14.0886C197.155 13.3894 194.507 12.4959 192.327 11.806C191.524 11.5514 192.101 11.6551 192.045 11.6301C191.134 11.2268 190.514 11.2171 190.191 11.1324C190.044 11.0937 189.899 11.0551 189.756 11.0167C188.024 10.5529 186.671 10.108 185.038 9.68663C184.552 9.56149 184.875 9.72955 184.777 9.71034C183.76 9.509 184.54 9.57183 183.912 9.38885C182.164 8.88007 180.161 8.37954 178.339 7.9519C177.672 7.79562 178.4 8.06336 177.801 7.92266C174.285 7.09871 170.57 6.29013 167.117 5.57606C166.467 5.44182 166.89 5.45172 166.757 5.41006C165.847 5.12152 164.439 5.01969 164.111 4.97632C162.641 4.7815 162.088 4.62463 160.806 4.42332C154.577 3.43424 146.756 2.45411 140.826 1.98794C133.062 1.37151 126.973 1.13573 119.571 1.27072C119.094 1.28076 119.577 1.36447 119.166 1.37462C113.881 1.50517 108.742 1.75907 103.484 2.27918C103.052 2.32206 103.682 2.35061 102.991 2.42296C101.567 2.57294 99.8176 2.75608 98.3635 2.9016C97.6599 2.97222 98.5923 2.78403 97.8845 2.85709C96.2369 3.02801 94.4915 3.25482 92.8413 3.51078C92.1257 3.62237 93.2217 3.55172 92.2882 3.69095C85.9904 4.64069 79.8424 5.86422 73.5896 7.29052C73.1562 7.38993 72.7319 7.30587 71.8299 7.57366C71.774 7.64056 71.7927 7.69753 71.7763 7.75787C62.8101 10.103 54.0991 12.9441 45.5191 16.5754C45.1588 16.7285 45.8186 16.5525 45.1224 16.8496C41.1079 18.5689 37.2417 20.4261 33.2427 22.4233C32.843 22.6247 32.9598 22.3651 31.8176 23.0087C31.6099 23.1228 29.9233 24.0759 29.4748 24.3757C29.4167 24.4151 29.7726 24.3051 29.214 24.624C26.0358 26.4378 22.6741 28.5001 19.6486 30.5234C19.1499 30.8572 19.6308 30.4224 19.271 30.6631C16.7281 32.3662 14.2268 34.3337 11.9311 36.1568C10.4578 37.3356 10.8917 36.7782 10.0145 37.3529C9.88592 37.4361 8.99964 38.2322 8.90236 38.2106C8.64331 38.1612 8.91018 37.603 8.58425 37.5959C8.50767 37.5952 7.39856 38.704 7.996 37.9845C8.03411 37.9353 8.85923 37.1254 9.05472 36.9007C9.18779 36.745 8.85732 36.9251 9.14397 36.6225C9.42485 36.326 9.85032 36.0474 10.3167 35.5943C10.8007 35.1293 10.5006 35.2474 11.5473 34.3674ZM140.05 107.736C141.112 107.635 141.215 107.313 140.094 107.58C140.04 107.593 139.995 107.741 140.05 107.736ZM15.8427 86.1171C16.9094 87.0436 17.8021 87.3967 17.0581 86.7705C16.2993 86.1264 15.5238 85.8363 15.8427 86.1171ZM5.49381 76.2585C6.369 77.6172 6.85533 77.545 5.7663 76.2353C5.70298 76.1565 5.44297 76.1774 5.49381 76.2585ZM13.6481 34.2658C13.6385 34.2672 12.9633 34.8009 12.9455 34.8215C12.7935 35.0054 13.0591 34.8231 13.3233 34.6141C13.575 34.4149 13.8189 34.194 13.6481 34.2658ZM0.29035 63.1709C0.267754 63.6765 0.554046 65.1269 0.530844 64.4889C0.500499 63.9763 0.303745 62.5441 0.29035 63.1709ZM192.942 91.3836C192.959 91.3804 193.526 91.109 193.503 91.0918C193.429 91.0383 192.655 91.4392 192.942 91.3836ZM7.15062 40.3787C5.22275 43.3907 3.94502 45.0993 5.89046 41.7816C6.25166 41.1893 5.22527 43.1225 5.70034 42.3809C6.56977 41.0272 6.97958 39.9735 8.07531 38.5802C8.26568 38.3317 7.25048 40.2101 7.14753 40.3844C7.14857 40.3825 7.14959 40.3806 7.15062 40.3787ZM140.715 107.985C140.737 107.986 141.58 107.841 141.599 107.833C142.038 107.659 140.341 107.951 140.715 107.985ZM222.977 71.6254C223.027 71.5991 224.467 70.1796 224.498 70.1263C225.132 69.276 222.234 72.1395 222.977 71.6254ZM83.3628 109.18C82.4388 109.143 81.2954 108.982 80.5801 108.749C81.499 108.898 82.4526 109.042 83.3628 109.18Z" fill="var(--stroke-0, white)"/>
</svg>
